<svg xmlns="http://www.w3.org/2000/svg" xmlns:xlink="http://www.w3.org/1999/xlink" version="1.1" x="0px" y="0px" width="100px" height="100px" viewBox="5.0 -10.0 100.0 135.0" enable-background="new 0 0 100 100" xml:space="preserve">
<g id="Captions">
</g>
<g id="Your_Icon">
	<circle cx="55.436" cy="20.65" r="7.967"/>
	<path d="M41.269,43.549l7.751,2.875l7.752,2.874c0.765,0.284,1.7-0.074,2.08-0.797l1.333-2.537l2.023-3.849l2.787,5.683   l2.135,4.353v0.001l0.653,1.331l-6.31,5.365l-5.18,4.406c-0.621,0.529-1.03,1.621-0.909,2.428l1.533,10.188l1.532,10.186   c0.121,0.807,0.881,1.367,1.687,1.246l2.199-0.332l2.2-0.33c0.808-0.121,1.368-0.881,1.246-1.688l-1.225-8.145l-1.446-9.609   l3.735-3.109l2.596-2.16c0.001,0,0.001,0,0.001-0.002l1.139-0.947l6.901,14.982l0.123,0.268c0.341,0.74,1.235,1.605,1.987,1.922   l7.565,3.184l7.567,3.184c0.751,0.316,1.625-0.041,1.941-0.793l1.726-4.1c0.316-0.752-0.04-1.627-0.791-1.943l-6.109-2.57   l-6.109-2.57c-0.001,0-0.001,0-0.001,0l-1.366-0.574l-7.843-17.104l-7.226-15.756c0-0.001,0-0.002,0-0.003l-0.617-1.345l1.48,0.034   c0.001,0,0.002,0,0.002,0l1.641,0.038l3.124,0.071l3.354,5.333l2.565,4.076c0.434,0.69,1.354,0.899,2.045,0.466l1.883-1.185   l1.883-1.186c0.689-0.434,0.899-1.354,0.465-2.045L83.147,37.6l-3.626-5.763c-0.435-0.691-1.457-1.265-2.272-1.277l-7.825-0.116   l-5.913-0.087c-2.142,0.11-4.037,1.175-5.007,2.972l-3.177,5.958c0,0.001-0.001,0.002-0.001,0.003l-0.696,1.305l-6.087-2.256   l-4.697-1.742c-0.764-0.284-1.62,0.109-1.905,0.873l-0.773,2.087l-0.772,2.086C40.11,42.408,40.504,43.266,41.269,43.549z"/>
	<path d="M38.818,62.191h-1.201H14.578l1.048-1.049l5.861-5.861c0.576-0.576,0.576-1.521,0-2.098l-3.146-3.146   c-0.577-0.576-1.521-0.576-2.098,0L1.433,64.85c-0.576,0.576-0.576,1.52,0,2.098l14.812,14.811c0.577,0.576,1.521,0.576,2.097,0   l3.146-3.146c0.576-0.576,0.576-1.52,0-2.096l-5.861-5.861l-1.048-1.049h1.479c0.001,0,0.003,0,0.004,0h21.557h1.201   c0.815,0,1.482-0.668,1.482-1.482v-4.449C40.301,62.857,39.634,62.191,38.818,62.191z"/>
</g>
<text x="0.0" y="117.5" font-size="5.0" font-weight="bold" font-family="Helvetica Neue, Helvetica, Arial-Unicode, Arial, Sans-serif" fill="#000000">Created by Nathan Driskell</text><text x="0.0" y="122.5" font-size="5.0" font-weight="bold" font-family="Helvetica Neue, Helvetica, Arial-Unicode, Arial, Sans-serif" fill="#000000">from the Noun Project</text></svg>