<svg xmlns="http://www.w3.org/2000/svg" xmlns:xlink="http://www.w3.org/1999/xlink" version="1.1" id="Layer_1" x="0px" y="0px" width="100.0px" height="100px" viewBox="25.6 -51.2 512.0 691.2" enable-background="new 0 0 512 512" xml:space="preserve">
<path d="M416,448c0,55.688-100.25,64-160,64s-160-8.313-160-64c0-41.563,55.891-56.75,109.078-61.75l9.047,31.656  C164.109,422.25,128,434,128,448c0,17.688,57.313,32,128,32c70.719,0,128-14.313,128-32c0-14-36.094-25.75-86.125-30.094  l9.063-31.656C360.125,391.25,416,406.438,416,448z M314.438,243.438L256,448l-59.922-209.719C157.938,216.125,132,175.281,132,128  C132,57.313,189.313,0,260,0s128,57.313,128,128C388,179.125,357.813,222.938,314.438,243.438z M320,128c0-35.344-28.656-64-64-64  s-64,28.656-64,64s28.656,64,64,64S320,163.344,320,128z"/>
<text x="0.0" y="601.6" font-size="25.6" font-weight="bold" font-family="Helvetica Neue, Helvetica, Arial-Unicode, Arial, Sans-serif" fill="#000000">Created by Simple Icons</text><text x="0.0" y="627.2" font-size="25.6" font-weight="bold" font-family="Helvetica Neue, Helvetica, Arial-Unicode, Arial, Sans-serif" fill="#000000">from the Noun Project</text></svg>