<svg xmlns="http://www.w3.org/2000/svg" xmlns:xlink="http://www.w3.org/1999/xlink" version="1.1" id="motion" x="0px" y="0px" width="100px" height="100px" viewBox="5.0 -10.0 100.0 135.0" enable-background="new 0 0 100 100" xml:space="preserve">
<g>
	<path d="M39.625,81.291c-0.271,0-0.772-0.104-1.08-0.807L29.618,60.12c-7.996-18.239-18.507-42.217-18.784-42.85   c-0.174-0.396-0.185-0.796-0.031-1.156c0.285-0.665,1.023-0.949,1.107-0.979L32.267,6.21c0,0,0,0,0,0   c-0.007,0,0.388-0.227,0.881-0.227c0.372,0,1.056,0.137,1.457,1.052c0.245,0.559,5.697,12.997,11.684,26.653   c7.39,16.859,15.596,35.576,15.823,36.096c0.438,0.999-0.17,1.767-0.686,2.04L40.296,81.09   C40.184,81.161,39.935,81.291,39.625,81.291z M33.147,6.983c-0.216,0-0.421,0.112-0.423,0.114l-20.444,8.967   c-0.135,0.052-0.463,0.219-0.56,0.447c-0.027,0.064-0.054,0.172,0.028,0.358c0.277,0.633,10.789,24.611,18.785,42.85l8.927,20.365   c0.042,0.096,0.11,0.207,0.164,0.207c0.046,0,0.113-0.03,0.143-0.05l0.087-0.05l21.136-9.268c0.101-0.06,0.401-0.289,0.204-0.738   c-0.228-0.521-8.433-19.237-15.823-36.096C39.386,20.433,33.933,7.995,33.688,7.437C33.512,7.035,33.307,6.983,33.147,6.983z"/>
</g>
<path display="none" fill="#000000" stroke="#FFFFFF" stroke-width="2" stroke-miterlimit="10" d="M40.056,80.649l21.136-9.268  c0,0,0.872-0.461,0.461-1.397c-0.411-0.94-26.96-61.5-27.507-62.749c-0.547-1.248-1.679-0.568-1.679-0.568L12.08,15.605  c0,0-1.235,0.448-0.788,1.464c0.445,1.017,27.334,62.354,27.711,63.214S40.056,80.649,40.056,80.649z"/>
<rect x="27.814" y="20.296" transform="matrix(-0.4031 -0.9151 0.9151 -0.4031 16.0151 67.967)" width="4.715" height="16.931"/>
<ellipse transform="matrix(0.9152 -0.4031 0.4031 0.9152 -16.7778 20.1367)" cx="39.452" cy="49.929" rx="4.018" ry="3.966"/>
<ellipse transform="matrix(0.9151 -0.4031 0.4031 0.9151 -19.9135 22.3896)" cx="43.225" cy="58.495" rx="4.019" ry="3.964"/>
<circle cx="30.094" cy="43.769" r="1.715"/>
<circle cx="35.544" cy="41.368" r="1.715"/>
<circle cx="40.995" cy="38.967" r="1.715"/>
<circle cx="19.118" cy="18.852" r="1.715"/>
<circle cx="30.019" cy="14.05" r="1.715"/>
<rect x="40.623" y="69.585" transform="matrix(0.9151 -0.4031 0.4031 0.9151 -25.0914 22.971)" width="2.786" height="2.999"/>
<rect x="44.516" y="67.87" transform="matrix(0.9152 -0.4031 0.4031 0.9152 -24.0665 24.3901)" width="2.786" height="2.999"/>
<rect x="48.41" y="66.153" transform="matrix(0.9151 -0.4032 0.4032 0.9151 -23.0506 25.824)" width="2.785" height="3.001"/>
<rect x="52.303" y="64.438" transform="matrix(0.9152 -0.4029 0.4029 0.9152 -22.0176 27.2271)" width="2.787" height="3"/>
<rect x="48.596" y="76.426" transform="matrix(0.9151 -0.4032 0.4032 0.9151 -27.0634 27.7231)" width="7.436" height="3.43"/>
<path d="M58.678,78.393l-3.102,2.108l2.22,4.282c0,0,7.557-0.312,15.491-6.391c0,0,0.503-0.06,2.771-3.32  c0,0-4.793-9.472-4.957-14.974c0,0-7.769,8.86-7.06,10.396s-3.307,4.869-3.307,4.869L58.678,78.393z"/>
<path d="M57.498,85.296l-2.57-4.959l3.39-2.304l2.098-3.054c1.789-1.485,3.51-3.543,3.172-4.274  c-0.763-1.653,4.737-8.198,7.138-10.937l0.838-0.955l0.038,1.271c0.158,5.329,4.855,14.669,4.903,14.763l0.135,0.266l-0.171,0.245  c-1.866,2.685-2.61,3.316-2.933,3.476c-7.947,6.062-15.404,6.437-15.719,6.45L57.498,85.296z M56.225,80.665l1.862,3.594  c1.492-0.142,8.087-1.048,14.896-6.263l0.154-0.089c0.148-0.109,0.769-0.643,2.34-2.878c-0.736-1.493-4.145-8.61-4.779-13.702  c-3.282,3.842-6.423,8.131-6.2,8.968c0.806,1.743-2.562,4.714-3.39,5.408l-2.149,3.103L56.225,80.665z"/>
<path d="M78.326,78.393c0,0-6.837,9.193-19.854,9.319l3.859,10.831h27.33L78.326,78.393z"/>
<path d="M90.516,99.043H61.979l-4.213-11.824l0.701-0.007c12.603-0.122,19.392-9.028,19.458-9.118l0.46-0.616L90.516,99.043z   M62.684,98.043h26.123L78.246,79.271c-1.759,2.007-8.3,8.551-19.071,8.926L62.684,98.043z"/>
<path d="M68.638,69.15c0,0,5.541-11.571,0-22.15c0,0-2.14-4.534-8.186-8.942c0,0-6.776-5.92-9.938-8.69c0,0-2.854-3.146-9.005,0.504  s-3.548,6.997,1.021,6.423c0,0,3.136,0.321,7.09-1.964s1.503,0.957-0.886,1.964c0,0,11.96,27.08,12.22,27.709  C60.955,64.004,67.629,71.818,68.638,69.15z"/>
<path d="M67.874,70.206C67.873,70.206,67.873,70.206,67.874,70.206c-2.171-0.001-6.461-4.896-7.299-5.877l-0.082-0.135  c-0.257-0.621-12.106-27.452-12.215-27.695l-0.208-0.466l0.47-0.199c0.861-0.363,1.682-1.015,2.182-1.526  c-0.221,0.106-0.501,0.253-0.852,0.456c-3.195,1.847-5.897,2.046-6.911,2.046c-0.202,0-0.344-0.008-0.418-0.013  c-2.645,0.317-4.64-0.576-5.07-2.144c-0.261-0.953-0.117-2.896,3.783-5.212c2.051-1.217,3.975-1.834,5.718-1.834  c2.59,0,3.859,1.366,3.912,1.424c3.12,2.73,9.896,8.65,9.896,8.65c6.045,4.405,8.219,8.915,8.309,9.105  c5.583,10.659,0.056,22.461-0.001,22.58C68.892,69.894,68.454,70.206,67.874,70.206z M61.385,63.737  c1.836,2.139,5.177,5.468,6.488,5.469c0.001,0,0.001,0,0.001,0c0.118,0,0.215-0.018,0.296-0.232  c0.071-0.152,5.381-11.516,0.024-21.742c-0.029-0.062-2.18-4.499-8.037-8.77c-0.034-0.027-6.811-5.948-9.972-8.718  c-0.08-0.083-1.088-1.136-3.212-1.136c-1.562,0-3.313,0.57-5.208,1.694c-2.397,1.422-3.642,2.95-3.33,4.087  c0.29,1.059,1.948,1.673,4.033,1.41l0.056-0.007l0.057,0.005c0.066,0.007,3.056,0.258,6.79-1.899  c1.343-0.776,1.852-0.866,2.119-0.866c0.442,0,0.656,0.285,0.705,0.528c0.166,0.818-1.485,2.277-2.831,2.988  c0.302,0.618,0.799,1.741,1.702,3.786l4.14,9.378C59.012,58.337,61.088,63.05,61.385,63.737z"/>
<path stroke="#000000" stroke-miterlimit="10" d="M50.515,29.368c0,0-2.854-3.146-9.005,0.504s-3.548,6.997,1.021,6.423  c0,0,3.136,0.321,7.09-1.964S53.676,32.138,50.515,29.368z"/>
<path d="M56.409,86.241c-0.016,0-0.03-0.001-0.046-0.002c-0.072-0.007-1.769-0.175-2.759-1.597c-0.745-1.07-0.877-2.524-0.392-4.321  c0.071-0.267,0.351-0.424,0.612-0.353c0.267,0.071,0.425,0.347,0.353,0.613c-0.404,1.498-0.321,2.672,0.247,3.488  c0.728,1.044,2.016,1.172,2.028,1.173c0.275,0.025,0.478,0.268,0.453,0.543C56.883,86.046,56.665,86.241,56.409,86.241z"/>
<path d="M56.402,87.299c-0.234,0-3.634-0.037-5.047-2.088c-0.747-1.083-0.793-2.49-0.141-4.182c0.1-0.259,0.391-0.385,0.646-0.287  c0.258,0.1,0.386,0.39,0.287,0.646c-0.527,1.365-0.517,2.46,0.03,3.255c1.13,1.64,4.158,1.655,4.227,1.655h0.001  c0.001,0,0.001,0,0.002,0c0.275,0,0.499,0.223,0.5,0.498c0.001,0.276-0.222,0.501-0.498,0.502  C56.408,87.299,56.405,87.299,56.402,87.299z"/>
<path d="M78.829,77.349c-0.051,0-0.104-0.008-0.155-0.024c-0.262-0.086-0.405-0.368-0.32-0.631c0.13-0.398,0.016-0.579-0.022-0.639  c-0.212-0.333-0.802-0.468-0.949-0.486c-0.273-0.033-0.469-0.283-0.435-0.558c0.034-0.273,0.277-0.469,0.558-0.435  c0.118,0.015,1.176,0.165,1.67,0.941c0.186,0.291,0.358,0.785,0.13,1.486C79.235,77.215,79.04,77.349,78.829,77.349z"/>
<path d="M17.403,31.887l11.804,26.608c0,0-7.553,0.596-8.374-3.183c0,0-0.746-2.773,2.472-3.652c0,0-4.985,1.259-5.902-3.275  c0,0-0.439-1.947,1.715-3.177c0,0-4.269,0.086-4.395-3.154c0,0-0.504-2.424,1.133-4.595C15.856,37.458,13.088,33.206,17.403,31.887z  "/>
<path d="M28.101,59.029c-2.604,0-7.075-0.469-7.757-3.61c-0.002-0.007-0.459-1.801,0.815-3.129  c-1.552-0.146-3.659-0.901-4.247-3.806c-0.139-0.616-0.061-1.854,0.917-2.9c-1.435-0.259-3.51-1.058-3.605-3.511  c-0.012-0.025-0.481-2.394,1.038-4.642c-0.368-0.674-1.136-2.36-0.586-3.874c0.369-1.015,1.238-1.738,2.582-2.149l0.423-0.129  l12.27,27.658l-0.704,0.056C29.246,58.993,28.796,59.029,28.101,59.029z M23.183,51.175l0.253,0.968  c-2.706,0.739-2.146,2.946-2.121,3.04c0.559,2.572,4.931,2.847,6.785,2.847c0.126,0,0.243-0.001,0.351-0.003L17.133,32.511  c-0.789,0.319-1.299,0.784-1.518,1.388c-0.435,1.195,0.33,2.778,0.661,3.286l0.191,0.294l-0.211,0.28  c-1.484,1.968-1.048,4.17-1.043,4.193c0.111,2.681,3.489,2.756,3.874,2.756h1.883l-1.604,0.934  c-1.789,1.021-1.488,2.571-1.474,2.637c0.508,2.516,2.412,3.042,3.918,3.042C22.589,51.32,23.177,51.177,23.183,51.175z"/>
<rect x="61.65" y="58.768" transform="matrix(0.9242 -0.3818 0.3818 0.9242 -20.5525 29.4359)" width="4.499" height="15.48"/>
<rect x="59.582" y="69.957" transform="matrix(0.4161 0.9093 -0.9093 0.4161 103.6894 -11.9841)" width="3.187" height="9.573"/>
<path d="M57.239,78.847l-1.742-3.809l9.615-4.398l1.742,3.809L57.239,78.847z M56.823,75.532l0.91,1.988l7.795-3.566l-0.91-1.988  L56.823,75.532z"/>
<rect x="27.814" y="20.295" transform="matrix(0.9151 -0.4031 0.4031 0.9151 -9.0343 14.6044)" width="4.715" height="16.931"/>
<path d="M17.741,81.886c-0.1,0-0.201-0.03-0.289-0.092C6.267,73.862,6.241,64.081,6.245,63.669c0.002-0.275,0.202-0.491,0.504-0.495  c0.276,0.003,0.498,0.229,0.496,0.505c-0.001,0.096,0.049,9.687,10.785,17.299c0.226,0.16,0.278,0.472,0.119,0.697  C18.052,81.812,17.897,81.886,17.741,81.886z"/>
<path d="M23.292,80.951c-0.1,0-0.201-0.03-0.289-0.092c-11.185-7.933-11.211-17.713-11.207-18.125  c0.003-0.274,0.226-0.495,0.5-0.495c0.001,0,0.003,0,0.004,0c0.276,0.003,0.498,0.229,0.496,0.505  c-0.001,0.096,0.049,9.686,10.785,17.299c0.226,0.16,0.278,0.473,0.119,0.697C23.604,80.878,23.449,80.951,23.292,80.951z"/>
<path d="M30.171,79.638c-0.1,0-0.201-0.03-0.289-0.092c-11.185-7.933-11.211-17.713-11.207-18.125  c0.003-0.274,0.226-0.495,0.5-0.495c0.001,0,0.003,0,0.004,0c0.276,0.003,0.498,0.229,0.496,0.505  c-0.001,0.096,0.049,9.686,10.785,17.299c0.226,0.16,0.278,0.473,0.119,0.697C30.482,79.564,30.328,79.638,30.171,79.638z"/>
<path d="M65.79,18.349c-0.207,0-0.4-0.129-0.472-0.335C60.977,5.554,51.788,2.872,51.696,2.846c-0.266-0.074-0.422-0.35-0.348-0.616  c0.074-0.265,0.346-0.423,0.615-0.348c0.397,0.11,9.786,2.853,14.298,15.802c0.092,0.261-0.047,0.546-0.308,0.637  C65.9,18.34,65.845,18.349,65.79,18.349z"/>
<path d="M63.349,23.422c-0.207,0-0.4-0.129-0.473-0.335C58.536,10.628,49.349,7.946,49.256,7.92  c-0.266-0.074-0.422-0.35-0.348-0.616s0.351-0.421,0.616-0.348c0.397,0.11,9.786,2.853,14.296,15.801  c0.092,0.261-0.047,0.546-0.308,0.637C63.459,23.414,63.403,23.422,63.349,23.422z"/>
<path d="M60.177,29.665c-0.207,0-0.4-0.129-0.472-0.335c-4.332-12.428-13.53-15.142-13.623-15.167  c-0.265-0.075-0.421-0.35-0.347-0.616c0.075-0.266,0.348-0.42,0.615-0.348C46.748,13.31,56.136,16.053,60.648,29  c0.092,0.261-0.046,0.546-0.307,0.637C60.287,29.656,60.231,29.665,60.177,29.665z"/>
<text x="0.0" y="117.5" font-size="5.0" font-weight="bold" font-family="Helvetica Neue, Helvetica, Arial-Unicode, Arial, Sans-serif" fill="#000000">Created by Amanda Downs</text><text x="0.0" y="122.5" font-size="5.0" font-weight="bold" font-family="Helvetica Neue, Helvetica, Arial-Unicode, Arial, Sans-serif" fill="#000000">from the Noun Project</text></svg>