<?xml version="1.0" encoding="utf-8"?>
<!-- Generator: Adobe Illustrator 18.0.0, SVG Export Plug-In . SVG Version: 6.00 Build 0)  -->
<!DOCTYPE svg PUBLIC "-//W3C//DTD SVG 1.1//EN" "http://www.w3.org/Graphics/SVG/1.1/DTD/svg11.dtd">
<svg version="1.1" id="Your_Icon" xmlns="http://www.w3.org/2000/svg" xmlns:xlink="http://www.w3.org/1999/xlink" x="0px" y="0px"
	 viewBox="0 0 100 100" enable-background="new 0 0 100 100" xml:space="preserve">
<g>
	<path d="M53.6,77.7c7.4-0.8,13.9-4,19.1-9.2c6.1-6.1,9.5-14.1,9.5-22.7s-3.3-16.6-9.4-22.7C66.6,17,58.6,13.7,50,13.7
		c-8.6,0-16.6,3.3-22.7,9.4s-9.4,14.1-9.4,22.7c0,8.6,3.3,16.6,9.3,22.7c5.2,5.2,11.5,8.4,18.9,9.2v5.7H30.6v-2.2h-3.7v2.2h-3v3
		h51.9v-3H53.6V77.7z M19.9,45.8c0-8.1,3.1-15.6,8.8-21.3c5.7-5.7,13.3-8.8,21.3-8.8c8.1,0,15.6,3.1,21.3,8.8
		c5.7,5.7,8.8,13.3,8.8,21.3s-3.1,15.6-8.8,21.3C65.7,72.8,58.1,76,50,76c-8.1,0-15.6-3.1-21.3-8.8C23,61.4,19.9,53.9,19.9,45.8z"/>
	<path d="M47.3,48.5c0.7,0.7,1.7,1.1,2.7,1.1c1,0,2-0.4,2.7-1.1c0.7-0.7,1.1-1.7,1.1-2.7c0-1-0.4-2-1.1-2.7C52,42.4,51,42,50,42
		c-1,0-2,0.4-2.7,1.1C45.8,44.6,45.8,47,47.3,48.5z"/>
	<path d="M62.1,68.4c-3.7,2-7.8,3-12.1,3s-8.4-1-12.1-3c-0.4,0.1-0.8,0.3-1.2,0.3c4,2.3,8.6,3.6,13.3,3.6s9.3-1.2,13.3-3.6
		C62.9,68.7,62.5,68.6,62.1,68.4z"/>
	<path d="M72.7,57.9c0.1,0.4,0.3,0.8,0.4,1.2c4.7-8.2,4.7-18.4,0-26.6c-0.1,0.4-0.2,0.8-0.4,1.2C76.6,41.3,76.7,50.3,72.7,57.9z"/>
	<path d="M27.4,33.7c-0.1-0.4-0.3-0.8-0.3-1.2c-4.7,8.2-4.7,18.4,0,26.6c0.1-0.4,0.2-0.8,0.4-1.2C23.4,50.3,23.4,41.3,27.4,33.7z"/>
	<path d="M50,20.2c4.3,0,8.4,1,12.1,3c0.4-0.1,0.8-0.3,1.2-0.3c-4-2.3-8.6-3.6-13.3-3.6c-4.8,0-9.3,1.2-13.3,3.6
		c0.4,0.1,0.8,0.2,1.2,0.3C41.6,21.2,45.7,20.2,50,20.2z"/>
	<path d="M50,25.5c2.7,0,5.2,0.5,7.6,1.5c0.2-0.3,0.3-0.5,0.5-0.8c-2.5-1.1-5.3-1.6-8.1-1.6c-2.8,0-5.6,0.6-8.1,1.6
		c0.2,0.2,0.3,0.5,0.5,0.8C44.8,26.1,47.4,25.5,50,25.5z"/>
	<path d="M31.3,38.2c-0.3-0.2-0.5-0.3-0.8-0.5c-2.1,5.2-2.1,11,0,16.2c0.2-0.2,0.5-0.3,0.8-0.5C29.3,48.6,29.3,43.1,31.3,38.2z"/>
	<path d="M69.6,37.7c-0.2,0.2-0.5,0.3-0.8,0.5c1,2.4,1.5,5,1.5,7.6c0,2.7-0.5,5.2-1.5,7.6c0.3,0.2,0.6,0.3,0.8,0.5
		c1.1-2.5,1.6-5.3,1.6-8.1C71.2,43,70.6,40.2,69.6,37.7z"/>
	<path d="M50,66.1c-2.7,0-5.2-0.5-7.6-1.5c-0.2,0.3-0.3,0.5-0.5,0.8c2.5,1.1,5.3,1.6,8.1,1.6c2.8,0,5.6-0.6,8.1-1.6
		c-0.2-0.2-0.3-0.5-0.5-0.8C55.3,65.5,52.7,66.1,50,66.1z"/>
	<path d="M50,60.4c-1.8,0-3.5-0.3-5.1-0.9c-0.1,0.3-0.2,0.6-0.4,0.8c1.7,0.7,3.6,1,5.5,1c1.9,0,3.8-0.4,5.5-1
		c-0.1-0.3-0.2-0.6-0.4-0.8C53.5,60,51.8,60.4,50,60.4z"/>
	<path d="M63.6,50.9c0.3,0.1,0.6,0.2,0.8,0.4c1.3-3.5,1.3-7.4,0-11c-0.3,0.1-0.6,0.2-0.8,0.4C64.9,44,64.9,47.6,63.6,50.9z"/>
	<path d="M44.5,31.4c0.1,0.3,0.2,0.6,0.4,0.8c1.6-0.6,3.3-0.9,5.1-0.9s3.5,0.3,5.1,0.9c0.1-0.3,0.2-0.6,0.4-0.8
		c-1.7-0.7-3.6-1-5.5-1C48.1,30.3,46.3,30.7,44.5,31.4z"/>
	<path d="M36.4,40.7c-0.3-0.1-0.6-0.2-0.8-0.4c-1.3,3.5-1.3,7.4,0,11c0.3-0.1,0.6-0.2,0.8-0.4C35.2,47.6,35.2,44,36.4,40.7z"/>
	<path d="M39.1,56.7c-1.6-1.6-2.8-3.5-3.5-5.5c-1.7,0.7-3.2,1.5-4.3,2.2c1,2.4,2.5,4.7,4.4,6.7c1.9,1.9,4.2,3.4,6.7,4.4
		c0.7-1.2,1.4-2.7,2.2-4.3C42.5,59.5,40.7,58.3,39.1,56.7z"/>
	<path d="M41.9,65.4c-2.5-1.1-4.9-2.6-6.8-4.6c-2-2-3.5-4.4-4.6-6.9c-0.5,0.3-0.9,0.6-1.2,0.9c-0.9,0.9-1.5,1.9-1.9,3
		c1.2,2.2,2.7,4.2,4.5,6.1c1.8,1.8,3.9,3.3,6.1,4.5c1.1-0.4,2.2-1,3.1-1.9C41.3,66.2,41.6,65.8,41.9,65.4z"/>
	<path d="M27.1,59.1c-0.5,2.6,0.3,5.4,2.3,7.4c2,2,4.8,2.8,7.4,2.3c-2-1.1-3.8-2.5-5.5-4.2C29.6,62.9,28.2,61.1,27.1,59.1z"/>
	<path d="M45.6,50.2c-0.7-0.7-1.2-1.5-1.5-2.3c-2.4,0.9-5.2,2-7.8,3.1c0.7,1.9,1.8,3.7,3.3,5.2c1.5,1.5,3.3,2.6,5.2,3.3
		c1.1-2.6,2.2-5.4,3.1-7.8C47.1,51.4,46.3,50.9,45.6,50.2z"/>
	<path d="M58.2,26.2c2.5,1.1,4.8,2.6,6.8,4.6c2,2,3.5,4.3,4.6,6.8c0.5-0.3,0.9-0.6,1.1-0.9c0.9-0.9,1.5-1.9,1.9-3
		c-1.2-2.2-2.7-4.2-4.5-6.1c-1.8-1.8-3.9-3.3-6.1-4.5c-1.1,0.4-2.2,1-3.1,1.9C58.8,25.4,58.5,25.8,58.2,26.2z"/>
	<path d="M54.4,41.4c0.7,0.7,1.2,1.5,1.5,2.3c2.4-0.9,5.2-2,7.7-3.1c-0.7-1.9-1.8-3.7-3.3-5.2c-1.5-1.5-3.3-2.6-5.2-3.3
		c-1.1,2.6-2.2,5.4-3.1,7.8C53,40.3,53.8,40.7,54.4,41.4z"/>
	<path d="M57.7,27c-0.7,1.2-1.4,2.7-2.2,4.3c2,0.8,3.9,1.9,5.5,3.5c1.6,1.6,2.8,3.5,3.5,5.5c1.7-0.7,3.2-1.5,4.3-2.2
		c-1-2.5-2.5-4.7-4.4-6.7C62.4,29.5,60.1,28,57.7,27z"/>
	<path d="M73,32.5c0.5-2.6-0.3-5.4-2.3-7.4c-2-2-4.8-2.8-7.4-2.3c2,1.1,3.8,2.6,5.5,4.2C70.5,28.7,71.9,30.5,73,32.5z"/>
	<path d="M36.4,40.7c2.6,1.1,5.4,2.2,7.8,3.1c0.3-0.9,0.8-1.7,1.5-2.3c0.7-0.7,1.5-1.2,2.3-1.5c-0.9-2.4-2-5.2-3.1-7.8
		c-1.9,0.7-3.7,1.8-5.2,3.3C38.2,37,37.1,38.8,36.4,40.7z"/>
	<path d="M30.5,37.7c1-2.5,2.6-4.8,4.6-6.9c2-2,4.3-3.5,6.8-4.6c-0.3-0.5-0.6-0.9-0.9-1.1c-0.9-0.9-1.9-1.5-3.1-1.9
		c-2.2,1.2-4.2,2.7-6.1,4.5c-1.8,1.8-3.3,3.9-4.5,6.1c0.4,1.1,1,2.2,1.9,3C29.6,37.1,30,37.4,30.5,37.7z"/>
	<path d="M36.7,22.8c-2.6-0.5-5.4,0.3-7.4,2.3c-2,2-2.8,4.8-2.3,7.4c1.1-2,2.5-3.8,4.2-5.5C32.9,25.4,34.7,24,36.7,22.8z"/>
	<path d="M39.1,34.9c1.6-1.6,3.4-2.8,5.5-3.5c-0.7-1.7-1.5-3.2-2.2-4.3c-2.5,1-4.7,2.5-6.7,4.4c-2,2-3.5,4.3-4.4,6.7
		c1.2,0.7,2.7,1.4,4.3,2.2C36.3,38.3,37.5,36.5,39.1,34.9z"/>
	<path d="M63.3,68.8c2.6,0.5,5.4-0.3,7.4-2.3c2-2,2.8-4.8,2.3-7.4c-1.1,2-2.5,3.8-4.2,5.5C67.2,66.2,65.3,67.6,63.3,68.8z"/>
	<path d="M54.4,50.2c-0.7,0.7-1.5,1.2-2.3,1.5c0.9,2.4,2,5.2,3.1,7.8c1.9-0.7,3.7-1.8,5.2-3.3c1.5-1.5,2.6-3.3,3.3-5.2
		c-2.6-1.1-5.3-2.2-7.7-3.1C55.6,48.7,55.1,49.5,54.4,50.2z"/>
	<path d="M61,56.7c-1.6,1.6-3.4,2.7-5.5,3.5c0.7,1.7,1.5,3.2,2.2,4.3c2.5-1,4.7-2.5,6.7-4.4c1.9-1.9,3.4-4.2,4.4-6.7
		c-1.2-0.7-2.7-1.4-4.3-2.2C63.7,53.3,62.6,55.1,61,56.7z"/>
	<path d="M72.7,57.9c-0.4-1.1-1-2.2-1.9-3c-0.3-0.3-0.7-0.6-1.1-0.9c-1,2.5-2.6,4.9-4.6,6.8c-2,2-4.3,3.5-6.8,4.6
		c0.3,0.5,0.6,0.9,0.9,1.1c0.9,0.9,1.9,1.5,3.1,1.9c2.2-1.2,4.2-2.7,6.1-4.5C70,62.1,71.5,60,72.7,57.9z"/>
</g>
</svg>
