<?xml version="1.0" encoding="UTF-8" standalone="no"?>
<svg width="41px" height="40px" viewBox="0 0 41 40" version="1.1" xmlns="http://www.w3.org/2000/svg" xmlns:xlink="http://www.w3.org/1999/xlink" xmlns:sketch="http://www.bohemiancoding.com/sketch/ns">
    <!-- Generator: Sketch 3.3 (11970) - http://www.bohemiancoding.com/sketch -->
    <title>noun_18127_cc</title>
    <desc>Created with Sketch.</desc>
    <defs></defs>
    <g id="About" stroke="none" stroke-width="1" fill="none" fill-rule="evenodd" sketch:type="MSPage">
        <g id="Tablet-Portrait" sketch:type="MSArtboardGroup" transform="translate(-361.000000, -95.000000)" fill="#3B4C54">
            <g id="noun_18127_cc" sketch:type="MSLayerGroup" transform="translate(361.000000, 95.000000)">
                <path d="M40.9717096,39.2594487 L0.802095588,39.2594487 L0.798952206,36.7686804 C0.773308824,32.415132 0.752132353,28.6580411 6.88238971,27.2539355 L7.21029412,27.1779003 C10.0474449,26.5308622 13.5769669,25.7232141 14.1596507,24.4396481 C14.3459375,24.0317185 14.2192096,23.4247507 13.7869118,22.6318827 C9.74832721,15.2526921 8.99209559,9.45299707 11.6643015,4.99812317 C13.5099632,1.91960117 16.8712316,0.154041056 20.8874816,0.154041056 C24.8718015,0.154041056 28.2127206,1.89201173 30.0509375,4.92832845 C32.7166912,9.32621701 31.9861029,15.1449619 27.9931801,22.6192375 C27.5661765,23.4185103 27.4449081,24.0336891 27.6331801,24.4439179 C28.2231434,25.7294545 31.6557169,26.513783 34.6806434,27.2072962 L34.8914154,27.2559062 C41.0195221,28.6600117 41.0003309,32.4172669 40.9727022,36.7685161 L40.9717096,39.2594487 L40.9717096,39.2594487 Z M3.79591912,36.2814311 L37.977886,36.2814311 C37.9959191,32.2537009 37.8705147,30.9913196 34.2184007,30.1583812 L34.0106066,30.109607 C29.9475368,29.1792845 26.1124449,28.3018416 24.9057169,25.6821584 C24.3094669,24.3859472 24.4585294,22.8849501 25.3444669,21.2249853 C28.8250184,14.7127273 29.5832353,9.93433431 27.4798162,6.46463343 C26.1784559,4.31643402 23.8364706,3.1323871 20.8873162,3.1323871 C17.9105331,3.1323871 15.5536581,4.33745455 14.2425368,6.52375367 C12.1338235,10.0377947 12.9080882,14.7908974 16.4237132,21.212176 C17.3278493,22.8636012 17.4866728,24.3645982 16.8955515,25.6629443 C15.7005699,28.2952727 11.9036949,29.1623695 7.88430147,30.0798827 L7.55623162,30.1559179 C3.90461397,30.9924692 3.77788603,32.254522 3.79591912,36.2814311 L3.79591912,36.2814311 Z" id="Shape" sketch:type="MSShapeGroup"></path>
            </g>
        </g>
    </g>
</svg>