<?xml version="1.0" encoding="UTF-8" standalone="no"?>
<svg width="15%" height="15%" viewBox="0 0 35 25" version="1.1">
    <defs></defs>
    <g id="Welcome" stroke="none" stroke-width="1" fill="none" fill-rule="evenodd" sketch:type="MSPage">
        <g id="Mobile-Portrait" sketch:type="MSArtboardGroup" transform="translate(-142.000000, -94.000000)" fill="#3B4C54">
            <g id="Banner" sketch:type="MSLayerGroup" transform="translate(86.000000, 94.000000)">
                <g id="Imported-Layers-Copy-2" transform="translate(56.500000, 0.000000)" sketch:type="MSShapeGroup">
                <g id="computer--face">
                    <g id="computer--eyes">
                    <path d="M13.4704839,11.3420455 C13.8921774,11.3420455 14.2337097,11.8573864 14.2337097,12.49375 C14.2337097,13.1301136 13.8921774,13.6454545 13.4704839,13.6454545 C13.0493548,13.6454545 12.7078226,13.1301136 12.7078226,12.49375 C12.7078226,11.8573864 13.0493548,11.3420455 13.4704839,11.3420455" id="eye--left"></path>
                    <path d="M21.1010484,11.3420455 C21.5227419,11.3420455 21.8642742,11.8573864 21.8642742,12.49375 C21.8642742,13.1301136 21.5227419,13.6454545 21.1010484,13.6454545 C20.6799194,13.6454545 20.3383871,13.1301136 20.3383871,12.49375 C20.3383871,11.8573864 20.6799194,11.3420455 21.1010484,11.3420455" id="eye--right"></path>
                </g>
                    <path d="M19.5475,14.8590909 C19.336371,14.8590909 19.1658871,15.03125 19.1658871,15.2431818 C19.1658871,16.3022727 18.3100806,17.1636364 17.2578226,17.1636364 C16.2055645,17.1636364 15.3503226,16.3022727 15.3503226,15.2431818 C15.3503226,15.03125 15.1798387,14.8590909 14.9681452,14.8590909 C14.7575806,14.8590909 14.5865323,15.03125 14.5865323,15.2431818 C14.5865323,16.7255682 15.785,17.93125 17.2572581,17.93125 C18.7295161,17.93125 19.9274194,16.7255682 19.9274194,15.2431818 C19.9291129,15.03125 19.758629,14.8590909 19.5475,14.8590909" id="smile"></path>
                </g>
                    <path d="M3.55137097,21.0028409 L31.0207258,21.0028409 C31.2312903,21.0028409 31.4023387,20.83125 31.4023387,20.61875 L31.4023387,2.57272727 C31.4023387,2.36022727 31.2318548,2.18863636 31.0207258,2.18863636 L3.55137097,2.18863636 C3.34024194,2.18863636 3.16975806,2.36022727 3.16975806,2.57272727 L3.16975806,20.6193182 C3.16975806,20.83125 3.34024194,21.0028409 3.55137097,21.0028409 L3.55137097,21.0028409 Z M3.93298387,2.95681818 L30.6391129,2.95681818 L30.6391129,20.2352273 L3.93298387,20.2352273 L3.93298387,2.95681818 Z" id="Fill-3"></path>
                    <path d="M33.3098387,21.7710227 L32.9282258,21.7710227 L32.9282258,2.1875 C32.9282258,1.12840909 32.0724194,0.267045455 31.0201613,0.267045455 L3.55080645,0.267045455 C2.4991129,0.267045455 1.64330645,1.12840909 1.64330645,2.1875 L1.64330645,21.7710227 L1.26112903,21.7710227 C0.63,21.7710227 0.116854839,22.2880682 0.116854839,22.9227273 L0.116854839,23.6909091 C0.116854839,24.3261364 0.630564516,24.8426136 1.26112903,24.8426136 L33.3092742,24.8426136 C33.9404032,24.8426136 34.4535484,24.3255682 34.4535484,23.6909091 L34.4535484,22.9227273 C34.4546774,22.2880682 33.9409677,21.7710227 33.3098387,21.7710227 L33.3098387,21.7710227 Z M3.55137097,1.03522727 L31.0207258,1.03522727 C31.6518548,1.03522727 32.165,1.55227273 32.165,2.18693182 L32.165,21.7710227 L19.5751613,21.7710227 C19.3640323,21.7710227 19.1935484,21.9431818 19.1935484,22.1551136 C19.1935484,22.2505682 19.1935484,22.5397727 18.0487097,22.5397727 L16.5228226,22.5397727 C15.3785484,22.5397727 15.3785484,22.2505682 15.3785484,22.1551136 C15.3785484,21.9431818 15.2080645,21.7710227 14.9969355,21.7710227 L2.40709677,21.7710227 L2.40709677,2.1875 C2.40709677,1.55227273 2.92080645,1.03522727 3.55137097,1.03522727 L3.55137097,1.03522727 Z M33.3098387,24.075 L1.26225806,24.075 C1.05225806,24.075 0.880645161,23.9028409 0.880645161,23.6909091 L0.880645161,22.9227273 C0.880645161,22.7113636 1.05169355,22.5386364 1.26225806,22.5386364 L14.6802419,22.5386364 C14.9641935,23.3056818 16.1112903,23.3068182 16.5228226,23.3068182 L18.0487097,23.3068182 C18.461371,23.3068182 19.6079032,23.3056818 19.8918548,22.5386364 L33.3098387,22.5386364 C33.5198387,22.5386364 33.6914516,22.7113636 33.6914516,22.9227273 L33.6914516,23.6909091 C33.6914516,23.9028409 33.5198387,24.075 33.3098387,24.075 L33.3098387,24.075 Z" id="Fill-4"></path>
                </g>
            </g>
        </g>
    </g>
</svg>