<?xml version="1.0" encoding="UTF-8" standalone="no"?>
<svg width="17px" height="18px" viewBox="0 0 17 18" version="1.1" xmlns="http://www.w3.org/2000/svg" xmlns:xlink="http://www.w3.org/1999/xlink" xmlns:sketch="http://www.bohemiancoding.com/sketch/ns">
    <!-- Generator: Sketch 3.3 (11970) - http://www.bohemiancoding.com/sketch -->
    <title>LOGO</title>
    <desc>Created with Sketch.</desc>
    <defs></defs>
    <g id="Resources" stroke="none" stroke-width="1" fill="none" fill-rule="evenodd" sketch:type="MSPage">
        <g id="Tablet-Portrait" sketch:type="MSArtboardGroup" transform="translate(-158.000000, -21.000000)">
            <g id="NAV-Copy" sketch:type="MSLayerGroup" transform="translate(30.000000, 21.315430)">
                <g id="Logo" sketch:type="MSShapeGroup">
                    <g id="LOGO" transform="translate(128.000000, 0.000000)">
                        <path d="M16.9498981,8.48879545 C16.9498981,13.175322 13.1651208,16.9743712 8.49621509,16.9743712 C3.82750189,16.9743712 0.0426603774,13.175322 0.0426603774,8.48879545 C0.0426603774,3.80233333 3.82750189,0.00328409091 8.49621509,0.00328409091 C13.1651208,0.00328409091 16.9498981,3.80233333 16.9498981,8.48879545" id="Fill-1" fill="#3B4C54"></path>
                        <path d="M5.66574717,10.2736667 C5.94063396,10.371803 6.32663019,10.4306591 6.74688302,10.4306591 C7.76944906,10.4306591 8.46760377,10.0690871 8.84641509,9.55425758 C9.04874717,9.61736364 9.28655472,9.65207197 9.56387925,9.65207197 C11.5811698,9.65207197 13.2374189,7.50350379 13.2374189,6.06210985 C13.2374189,5.35480682 12.973117,4.76231818 12.1627623,4.76231818 C11.5549321,4.76231818 11.2023585,4.96567424 10.8588943,5.35480682 L11.9993698,2.34529167 L8.8810566,2.34529167 L8.46683396,3.49491667 L9.44475094,3.49491667 L9.16736226,4.22881439 C9.7514566,4.38039773 10.1559925,4.86406061 10.1559925,5.47097348 C10.1559925,6.24917424 9.48593585,6.77198864 8.85995094,6.77198864 C8.64324906,6.77198864 8.44123774,6.72189015 8.26148679,6.62697348 L8.25981887,6.6310947 C8.25981887,6.6310947 7.99269434,7.32725758 7.98544528,7.32178409 L7.32629434,8.98327652 C7.32629434,8.98327652 7.11273585,9.4764053 6.77510943,9.42096212 C6.50131321,9.37588636 6.52164906,9.09100758 6.64186792,8.64585227 C6.87415849,7.91710606 7.46492453,6.38343561 7.46492453,6.38343561 L7.46543774,6.38362879 C7.55435094,6.15342045 7.67816226,6.02946212 7.78433208,6.02946212 C7.82885283,6.02946212 7.88216226,6.04736364 7.90884906,6.100875 C8.0955283,6.38633333 8.40672453,6.62729545 8.85995094,6.62729545 C9.42884151,6.62729545 9.9889434,6.14543561 9.9889434,5.49402652 C9.9889434,4.98563636 9.65099623,4.54106061 9.10776604,4.41008333 L9.10629057,4.413625 C9.00185283,4.38857576 8.89055094,4.37382955 8.77161509,4.37382955 C8.22055849,4.37382955 7.79382642,4.86464015 7.40276226,5.53382197 C7.40276226,5.53227652 7.40256981,5.53073106 7.40256981,5.52918561 C7.40244151,5.52944318 7.40231321,5.52957197 7.40231321,5.52970076 C7.40051698,5.48237121 7.39628302,5.43388258 7.38922642,5.38487879 C7.31776226,4.90102273 6.96897358,4.37382955 6.13161132,4.37382955 C5.31375094,4.37382955 4.57595094,4.95389015 4.2026566,5.99790909 L4.06197358,6.38633333 L4.85096604,6.38633333 C5.04656226,5.80646591 5.17095094,5.71721591 5.35775849,5.71721591 C5.41215849,5.71721591 5.43525283,5.74876894 5.4431434,5.79964015 C5.44596604,5.81606061 5.4470566,5.83473485 5.4470566,5.85514773 C5.4470566,5.97987879 5.39381132,6.17621591 5.32273208,6.37261742 L4.55458868,8.5456553 C4.36669057,9.12114394 4.73940755,9.69038636 5.06760377,9.95974621 C4.38452453,10.2833902 3.94958113,10.6759356 3.89056226,11.3530379 C3.84860755,11.8336098 4.12124906,12.2947992 4.48620377,12.4812841 C4.13209057,12.618572 3.79818491,12.9718371 3.75905283,13.423303 C3.71799623,13.8940871 3.99076604,14.4632652 5.08563019,14.4632652 L6.95248679,14.4632652 C8.65332075,14.4632652 9.63046792,13.3446136 9.71771321,12.3439318 C9.80412453,11.3530379 9.2514,10.8524394 7.97101132,10.8524394 L5.8205434,10.8524394 C5.5860717,10.8524394 5.45404906,10.6857879 5.46501887,10.5581591 C5.47278113,10.469875 5.55155849,10.3521629 5.66574717,10.2736667 L5.66574717,10.2736667 Z M10.9911094,5.92057197 C11.1408377,5.92057197 11.2023585,6.03557955 11.2023585,6.21253409 C11.2023585,6.89330682 10.3832151,8.53799242 9.92524151,8.53799242 C9.82824528,8.53799242 9.77544906,8.44964394 9.77544906,8.3523447 C9.77544906,7.99875758 10.5065774,5.92057197 10.9911094,5.92057197 L10.9911094,5.92057197 Z M7.71030189,12.8344848 C7.88613962,12.8344848 7.92469434,12.9523902 7.91725283,13.0405455 C7.90692453,13.1581932 7.81326415,13.3348902 7.56897736,13.3348902 L5.34037358,13.3348902 C5.17409434,13.3348902 5.04855094,13.2073902 5.06048302,13.0699091 C5.06972075,12.9619848 5.13784906,12.8542538 5.25691321,12.8344848 L7.71030189,12.8344848 L7.71030189,12.8344848 Z" id="Fill-2" fill="#FFFFFF"></path>
                    </g>
                </g>
            </g>
        </g>
    </g>
</svg>