<?xml version="1.0" encoding="UTF-8" standalone="no"?>
<svg width="47px" height="49px" viewBox="0 0 47 49" version="1.1" xmlns="http://www.w3.org/2000/svg" xmlns:xlink="http://www.w3.org/1999/xlink" xmlns:sketch="http://www.bohemiancoding.com/sketch/ns">
    <!-- Generator: Sketch 3.3 (11970) - http://www.bohemiancoding.com/sketch -->
    <title>noun_21509_cc</title>
    <desc>Created with Sketch.</desc>
    <defs></defs>
    <g id="Resources" stroke="none" stroke-width="1" fill="none" fill-rule="evenodd" sketch:type="MSPage">
        <g id="Tablet-Portrait" sketch:type="MSArtboardGroup" transform="translate(-356.000000, -89.000000)" fill="#3B4C54">
            <g id="noun_21509_cc" sketch:type="MSLayerGroup" transform="translate(356.000000, 89.000000)">
                <rect id="Rectangle-path" sketch:type="MSShapeGroup" x="10.16375" y="15.41883" width="8.48301042" height="2.23097"></rect>
                <path d="M43.2267813,16.0965 L43.2267813,12.85907 L30.0251667,12.85907 L30.0251667,3.23743 L26.3302813,3.23743 L26.3302813,0 L3.20970833,0 C1.48294792,0 0.0783333333,1.40679 0.0783333333,3.13551 L0.0783333333,36.15906 L0.0812708333,36.15906 C0.144427083,37.83192 1.52309375,39.17305 3.20970833,39.17305 L3.55535417,39.17305 C4.43905208,39.17305 12.7125208,39.17109 19.5725625,39.16962 L19.5725625,45.98552 L19.5755,45.98552 C19.6386563,47.65838 21.0173229,48.99951 22.7039375,48.99951 L23.0495833,48.99951 C24.5839375,48.99951 45.8078646,48.99412 45.8078646,48.99412 L46.9221563,48.99363 L46.9221563,16.0965 L43.2267813,16.0965 L43.2267813,16.0965 Z M21.8011458,42.73192 L21.8011458,15.99458 C21.8011458,15.49576 22.2060313,15.09004 22.7034479,15.09004 L40.9977083,15.09004 L40.9977083,42.73241 L21.8011458,42.73192 L21.8011458,42.73192 Z M27.7965833,5.4684 L27.7965833,12.85907 L26.3307708,12.85907 L26.3307708,5.4684 L27.7965833,5.4684 L27.7965833,5.4684 Z M2.30740625,3.13551 C2.30740625,2.63669 2.71229167,2.23048 3.20970833,2.23048 L24.1016979,2.23048 L24.1016979,12.85858 L22.7034479,12.85858 C22.389625,12.85858 22.0870625,12.90562 21.8011458,12.99186 L21.8011458,11.81635 L7.02454167,11.81635 L7.02454167,21.1582 L19.5720729,21.1582 L19.5720729,32.90448 L2.30740625,32.90448 L2.30740625,3.13551 L2.30740625,3.13551 Z M19.5720729,14.04781 L19.5720729,18.92821 L9.25361458,18.92821 L9.25361458,14.04781 C9.25361458,14.04781 19.5720729,14.04781 19.5720729,14.04781 L19.5720729,14.04781 Z M3.55535417,36.94257 L3.20970833,36.94257 C2.71180208,36.94257 2.30740625,36.53783 2.30740625,36.03999 C2.30740625,35.54166 2.71229167,35.13594 3.20970833,35.13594 L19.5725625,35.13594 L19.5725625,36.93914 C12.7125208,36.94061 4.4385625,36.94257 3.55535417,36.94257 L3.55535417,36.94257 Z M44.6925938,46.76413 C40.3015208,46.76511 24.3704792,46.76952 23.0490938,46.76952 L22.7034479,46.76952 C22.2060313,46.76952 21.8011458,46.36478 21.8011458,45.86694 C21.8011458,45.36861 22.2060313,44.96289 22.7034479,44.96289 L43.2267813,44.96289 L43.2267813,18.32698 L44.6925938,18.32698 L44.6925938,46.76413 L44.6925938,46.76413 Z" id="Shape" sketch:type="MSShapeGroup"></path>
                <rect id="Rectangle-path" sketch:type="MSShapeGroup" x="26.2715312" y="18.93115" width="8.7096875" height="2.23097"></rect>
                <rect id="Rectangle-path" sketch:type="MSShapeGroup" x="30.5074062" y="32.85303" width="7.86858333" height="2.23097"></rect>
                <rect id="Rectangle-path" sketch:type="MSShapeGroup" x="30.5074062" y="36.77891" width="4.7969375" height="2.23097"></rect>
                <rect id="Rectangle-path" sketch:type="MSShapeGroup" x="26.2715312" y="22.32195" width="5.65909375" height="2.23097"></rect>
            </g>
        </g>
    </g>
</svg>