<?xml version="1.0" encoding="UTF-8" standalone="no"?>
<svg width="40px" height="35px" viewBox="0 0 40 35" version="1.1" xmlns="http://www.w3.org/2000/svg" xmlns:xlink="http://www.w3.org/1999/xlink" xmlns:sketch="http://www.bohemiancoding.com/sketch/ns">
    <!-- Generator: Sketch 3.3 (11970) - http://www.bohemiancoding.com/sketch -->
    <title>noun_101387_cc</title>
    <desc>Created with Sketch.</desc>
    <defs></defs>
    <g id="Writing" stroke="none" stroke-width="1" fill="none" fill-rule="evenodd" sketch:type="MSPage">
        <g id="Tablet-Portrait" sketch:type="MSArtboardGroup" transform="translate(-363.000000, -100.000000)" fill="#000000">
            <g id="noun_101387_cc" sketch:type="MSLayerGroup" transform="translate(363.000000, 100.000000)">
                <path d="M38.9473684,0 L1.05263158,0 C0.473684211,0 0,0.477272727 0,1.06060606 L0,26.5151515 C0,27.0984848 0.473684211,27.5757576 1.05263158,27.5757576 L9.47368421,27.5757576 L9.47368421,33.9393939 C9.47368421,34.3636364 9.73684211,34.7348485 10.1052632,34.8939394 C10.2631579,35 10.3684211,35 10.5263158,35 C10.7894737,35 11.0526316,34.8939394 11.2631579,34.6818182 L18.4210526,27.5757576 L38.9473684,27.5757576 C39.5263158,27.5757576 40,27.0984848 40,26.5151515 L40,1.06060606 C40,0.477272727 39.5263158,0 38.9473684,0 L38.9473684,0 Z M37.8947368,25.4545455 L18,25.4545455 C17.7368421,25.4545455 17.4736842,25.5606061 17.2631579,25.7727273 L11.5789474,31.3939394 L11.5789474,26.5151515 C11.5789474,25.9318182 11.1052632,25.4545455 10.5263158,25.4545455 L2.10526316,25.4545455 L2.10526316,2.12121212 L37.8947368,2.12121212 L37.8947368,25.4545455 L37.8947368,25.4545455 Z M20,10.6060606 C17.9473684,10.6060606 16.3157895,12.25 16.3157895,14.3181818 C16.3157895,16.3863636 17.9473684,18.030303 20,18.030303 C22.0526316,18.030303 23.6842105,16.3863636 23.6842105,14.3181818 C23.6842105,12.25 22.0526316,10.6060606 20,10.6060606 L20,10.6060606 Z M20,15.9090909 C19.1052632,15.9090909 18.4210526,15.1666667 18.4210526,14.3181818 C18.4210526,13.4166667 19.1052632,12.7272727 20,12.7272727 C20.8947368,12.7272727 21.5789474,13.4166667 21.5789474,14.3181818 C21.5789474,15.1666667 20.8947368,15.9090909 20,15.9090909 L20,15.9090909 Z M30.5263158,10.6060606 C28.4736842,10.6060606 26.8421053,12.25 26.8421053,14.3181818 C26.8421053,16.3863636 28.4736842,18.030303 30.5263158,18.030303 C32.5789474,18.030303 34.2105263,16.3863636 34.2105263,14.3181818 C34.2105263,12.25 32.5789474,10.6060606 30.5263158,10.6060606 L30.5263158,10.6060606 Z M30.5263158,15.9090909 C29.6315789,15.9090909 28.9473684,15.1666667 28.9473684,14.3181818 C28.9473684,13.4166667 29.6315789,12.7272727 30.5263158,12.7272727 C31.4210526,12.7272727 32.1052632,13.4166667 32.1052632,14.3181818 C32.1052632,15.1666667 31.4210526,15.9090909 30.5263158,15.9090909 L30.5263158,15.9090909 Z M9.47368421,10.6060606 C7.42105263,10.6060606 5.78947368,12.25 5.78947368,14.3181818 C5.78947368,16.3863636 7.42105263,18.030303 9.47368421,18.030303 C11.5263158,18.030303 13.1578947,16.3863636 13.1578947,14.3181818 C13.1578947,12.25 11.5263158,10.6060606 9.47368421,10.6060606 L9.47368421,10.6060606 Z M9.47368421,15.9090909 C8.57894737,15.9090909 7.89473684,15.1666667 7.89473684,14.3181818 C7.89473684,13.4166667 8.57894737,12.7272727 9.47368421,12.7272727 C10.3684211,12.7272727 11.0526316,13.4166667 11.0526316,14.3181818 C11.0526316,15.1666667 10.3684211,15.9090909 9.47368421,15.9090909 L9.47368421,15.9090909 Z" id="Shape" sketch:type="MSShapeGroup"></path>
            </g>
        </g>
    </g>
</svg>